<mxfile host="app.diagrams.net" modified="2023-10-09T00:33:19.563Z" agent="Mozilla/5.0 (Windows NT 10.0; Win64; x64) AppleWebKit/537.36 (KHTML, like Gecko) Chrome/117.0.0.0 Safari/537.36" etag="0y2zorIJ-amMKeoFBHbj" version="22.0.4" type="device">
  <diagram name="Page-1" id="2EQm1ohP4JpxFZaRWw4u">
    <mxGraphModel dx="1834" dy="1560" grid="0" gridSize="10" guides="1" tooltips="1" connect="1" arrows="1" fold="1" page="0" pageScale="1" pageWidth="850" pageHeight="1100" background="#030303" math="0" shadow="0">
      <root>
        <mxCell id="0" />
        <mxCell id="1" parent="0" />
        <mxCell id="8hckK23NObhMNq6vptdG-9" style="edgeStyle=orthogonalEdgeStyle;rounded=0;orthogonalLoop=1;jettySize=auto;html=1;exitX=1;exitY=0.5;exitDx=0;exitDy=0;entryX=0;entryY=0.5;entryDx=0;entryDy=0;strokeColor=#FFFFFF;" parent="1" source="ybA4D6lMkIbpFZo4qpfy-1" target="8hckK23NObhMNq6vptdG-8" edge="1">
          <mxGeometry relative="1" as="geometry" />
        </mxCell>
        <mxCell id="ybA4D6lMkIbpFZo4qpfy-1" value="&lt;font style=&quot;&quot; color=&quot;#ffffff&quot;&gt;Top Level Claim C1:&lt;br&gt;ITFlow provides secure access to roles in the environment&lt;br&gt;&lt;/font&gt;" style="rounded=0;whiteSpace=wrap;html=1;fillColor=none;strokeColor=#FFFFFF;strokeWidth=2;" parent="1" vertex="1">
          <mxGeometry x="322" y="-604" width="190" height="80" as="geometry" />
        </mxCell>
        <mxCell id="XoP2dFKV41F0B6HGyTo1-17" style="edgeStyle=orthogonalEdgeStyle;rounded=0;orthogonalLoop=1;jettySize=auto;html=1;exitX=0.5;exitY=1;exitDx=0;exitDy=0;exitPerimeter=0;entryX=0.5;entryY=0;entryDx=0;entryDy=0;strokeColor=#FFFFFF;" parent="1" source="XoP2dFKV41F0B6HGyTo1-1" target="XoP2dFKV41F0B6HGyTo1-10" edge="1">
          <mxGeometry relative="1" as="geometry" />
        </mxCell>
        <mxCell id="XoP2dFKV41F0B6HGyTo1-1" value="&lt;font style=&quot;background-color: rgb(102, 51, 0);&quot; color=&quot;#ffffff&quot;&gt;Rebuttal R1:&lt;br&gt;Unless ITFlows database is not secure&lt;br&gt;&lt;/font&gt;" style="shape=note;whiteSpace=wrap;html=1;backgroundOutline=1;darkOpacity=0.05;fillColor=#663300;strokeColor=#FFFFFF;" parent="1" vertex="1">
          <mxGeometry x="105" y="-433" width="156" height="80" as="geometry" />
        </mxCell>
        <mxCell id="XoP2dFKV41F0B6HGyTo1-16" style="edgeStyle=orthogonalEdgeStyle;rounded=0;orthogonalLoop=1;jettySize=auto;html=1;exitX=0.5;exitY=1;exitDx=0;exitDy=0;exitPerimeter=0;entryX=0.5;entryY=0;entryDx=0;entryDy=0;strokeColor=#FFFFFF;" parent="1" source="XoP2dFKV41F0B6HGyTo1-2" target="XoP2dFKV41F0B6HGyTo1-12" edge="1">
          <mxGeometry relative="1" as="geometry" />
        </mxCell>
        <mxCell id="XoP2dFKV41F0B6HGyTo1-2" value="&lt;font style=&quot;background-color: rgb(102, 51, 0);&quot; color=&quot;#ffffff&quot;&gt;Rebuttal R2:&lt;br&gt;Unless Roles are not clearly defined&lt;/font&gt;" style="shape=note;whiteSpace=wrap;html=1;backgroundOutline=1;darkOpacity=0.05;fillColor=#663300;strokeColor=#FFFFFF;" parent="1" vertex="1">
          <mxGeometry x="339" y="-433" width="156" height="80" as="geometry" />
        </mxCell>
        <mxCell id="XoP2dFKV41F0B6HGyTo1-14" style="edgeStyle=orthogonalEdgeStyle;rounded=0;orthogonalLoop=1;jettySize=auto;html=1;exitX=0.5;exitY=1;exitDx=0;exitDy=0;exitPerimeter=0;strokeColor=#FFFFFF;curved=1;entryX=0.5;entryY=0;entryDx=0;entryDy=0;" parent="1" source="XoP2dFKV41F0B6HGyTo1-3" target="8hckK23NObhMNq6vptdG-12" edge="1">
          <mxGeometry relative="1" as="geometry">
            <mxPoint x="550.5" y="-284" as="targetPoint" />
          </mxGeometry>
        </mxCell>
        <mxCell id="8hckK23NObhMNq6vptdG-26" style="edgeStyle=orthogonalEdgeStyle;rounded=0;orthogonalLoop=1;jettySize=auto;html=1;exitX=0.5;exitY=1;exitDx=0;exitDy=0;exitPerimeter=0;entryX=0.5;entryY=0;entryDx=0;entryDy=0;strokeColor=#FFFFFF;" parent="1" source="XoP2dFKV41F0B6HGyTo1-3" target="8hckK23NObhMNq6vptdG-24" edge="1">
          <mxGeometry relative="1" as="geometry" />
        </mxCell>
        <mxCell id="8hckK23NObhMNq6vptdG-31" style="edgeStyle=orthogonalEdgeStyle;rounded=0;orthogonalLoop=1;jettySize=auto;html=1;exitX=0.5;exitY=1;exitDx=0;exitDy=0;exitPerimeter=0;entryX=0.5;entryY=0;entryDx=0;entryDy=0;curved=1;strokeColor=#FFFFFF;" parent="1" source="XoP2dFKV41F0B6HGyTo1-3" target="8hckK23NObhMNq6vptdG-27" edge="1">
          <mxGeometry relative="1" as="geometry" />
        </mxCell>
        <mxCell id="XoP2dFKV41F0B6HGyTo1-3" value="&lt;font style=&quot;background-color: rgb(102, 51, 0);&quot; color=&quot;#ffffff&quot;&gt;Rebuttal R3:&lt;br&gt;Unless Privilege&amp;nbsp;escalation&amp;nbsp;is present&lt;/font&gt;" style="shape=note;whiteSpace=wrap;html=1;backgroundOutline=1;darkOpacity=0.05;fillColor=#663300;strokeColor=#FFFFFF;" parent="1" vertex="1">
          <mxGeometry x="651" y="-433" width="156" height="80" as="geometry" />
        </mxCell>
        <mxCell id="XoP2dFKV41F0B6HGyTo1-5" style="edgeStyle=orthogonalEdgeStyle;rounded=0;orthogonalLoop=1;jettySize=auto;html=1;exitX=0.5;exitY=1;exitDx=0;exitDy=0;entryX=0.5;entryY=0;entryDx=0;entryDy=0;entryPerimeter=0;strokeColor=#FFFFFF;curved=1;" parent="1" source="ybA4D6lMkIbpFZo4qpfy-1" target="XoP2dFKV41F0B6HGyTo1-1" edge="1">
          <mxGeometry relative="1" as="geometry" />
        </mxCell>
        <mxCell id="XoP2dFKV41F0B6HGyTo1-6" style="edgeStyle=orthogonalEdgeStyle;rounded=0;orthogonalLoop=1;jettySize=auto;html=1;exitX=0.5;exitY=1;exitDx=0;exitDy=0;entryX=0;entryY=0;entryDx=63;entryDy=0;entryPerimeter=0;curved=1;strokeColor=#FFFFFF;" parent="1" source="ybA4D6lMkIbpFZo4qpfy-1" target="XoP2dFKV41F0B6HGyTo1-3" edge="1">
          <mxGeometry relative="1" as="geometry" />
        </mxCell>
        <mxCell id="XoP2dFKV41F0B6HGyTo1-7" style="edgeStyle=orthogonalEdgeStyle;rounded=0;orthogonalLoop=1;jettySize=auto;html=1;exitX=0.5;exitY=1;exitDx=0;exitDy=0;entryX=0.5;entryY=0;entryDx=0;entryDy=0;entryPerimeter=0;strokeColor=#FFFFFF;" parent="1" source="ybA4D6lMkIbpFZo4qpfy-1" target="XoP2dFKV41F0B6HGyTo1-2" edge="1">
          <mxGeometry relative="1" as="geometry" />
        </mxCell>
        <mxCell id="ytKcrQhwxrK1HXbRfZfO-2" style="edgeStyle=orthogonalEdgeStyle;rounded=0;orthogonalLoop=1;jettySize=auto;html=1;exitX=0.5;exitY=1;exitDx=0;exitDy=0;entryX=0.5;entryY=0;entryDx=0;entryDy=0;strokeColor=#FFFFFF;" edge="1" parent="1" source="XoP2dFKV41F0B6HGyTo1-10" target="ytKcrQhwxrK1HXbRfZfO-1">
          <mxGeometry relative="1" as="geometry">
            <mxPoint x="183" y="-197" as="targetPoint" />
          </mxGeometry>
        </mxCell>
        <mxCell id="XoP2dFKV41F0B6HGyTo1-10" value="&lt;font style=&quot;&quot; color=&quot;#ffffff&quot;&gt;Sub-Claim C2:&lt;br&gt;&lt;/font&gt;&lt;font style=&quot;&quot; color=&quot;#ffffff&quot;&gt;ITFlow database is secure&lt;br&gt;&lt;/font&gt;" style="rounded=0;whiteSpace=wrap;html=1;fillColor=none;strokeColor=#FFFFFF;strokeWidth=2;" parent="1" vertex="1">
          <mxGeometry x="112.5" y="-295" width="141" height="72" as="geometry" />
        </mxCell>
        <mxCell id="ytKcrQhwxrK1HXbRfZfO-44" style="edgeStyle=orthogonalEdgeStyle;rounded=0;orthogonalLoop=1;jettySize=auto;html=1;exitX=0.5;exitY=1;exitDx=0;exitDy=0;entryX=0.5;entryY=0;entryDx=0;entryDy=0;strokeColor=#FFFFFF;" edge="1" parent="1" source="XoP2dFKV41F0B6HGyTo1-12" target="ytKcrQhwxrK1HXbRfZfO-36">
          <mxGeometry relative="1" as="geometry" />
        </mxCell>
        <mxCell id="XoP2dFKV41F0B6HGyTo1-12" value="&lt;font style=&quot;&quot; color=&quot;#ffffff&quot;&gt;Sub-Claim C3:&lt;br&gt;Roles are clearly defined in ITFlow&lt;br&gt;&lt;/font&gt;" style="rounded=0;whiteSpace=wrap;html=1;fillColor=none;strokeColor=#FFFFFF;strokeWidth=2;" parent="1" vertex="1">
          <mxGeometry x="346.5" y="-295" width="141" height="72" as="geometry" />
        </mxCell>
        <mxCell id="8hckK23NObhMNq6vptdG-8" value="&lt;font color=&quot;#ffffff&quot;&gt;Context CT1:&lt;br&gt;ITFlow Meets security standards for Role Based Access Control&lt;br&gt;&lt;/font&gt;" style="rounded=1;whiteSpace=wrap;html=1;fillColor=#333333;strokeColor=#FFFFFF;" parent="1" vertex="1">
          <mxGeometry x="642" y="-594" width="120" height="60" as="geometry" />
        </mxCell>
        <mxCell id="8hckK23NObhMNq6vptdG-14" style="edgeStyle=orthogonalEdgeStyle;rounded=0;orthogonalLoop=1;jettySize=auto;html=1;exitX=0.5;exitY=1;exitDx=0;exitDy=0;entryX=0;entryY=0.5;entryDx=0;entryDy=0;strokeColor=#FFFFFF;curved=1;" parent="1" target="ytKcrQhwxrK1HXbRfZfO-39" edge="1">
          <mxGeometry relative="1" as="geometry">
            <mxPoint x="580" y="-223" as="sourcePoint" />
            <mxPoint x="688.5" y="-136" as="targetPoint" />
          </mxGeometry>
        </mxCell>
        <mxCell id="8hckK23NObhMNq6vptdG-12" value="&lt;font style=&quot;&quot; color=&quot;#ffffff&quot;&gt;Sub-Claim C4:&lt;br&gt;Privilege escalation&amp;nbsp;is not possible by IDOR&lt;br&gt;&lt;/font&gt;" style="rounded=0;whiteSpace=wrap;html=1;fillColor=none;strokeColor=#FFFFFF;strokeWidth=2;" parent="1" vertex="1">
          <mxGeometry x="512" y="-295" width="141" height="72" as="geometry" />
        </mxCell>
        <mxCell id="ytKcrQhwxrK1HXbRfZfO-30" style="edgeStyle=orthogonalEdgeStyle;rounded=0;orthogonalLoop=1;jettySize=auto;html=1;exitX=0.5;exitY=1;exitDx=0;exitDy=0;entryX=0.5;entryY=0;entryDx=0;entryDy=0;strokeColor=#FFFFFF;" edge="1" parent="1" source="ytKcrQhwxrK1HXbRfZfO-39" target="8hckK23NObhMNq6vptdG-22">
          <mxGeometry relative="1" as="geometry">
            <mxPoint x="740.5" y="-84" as="sourcePoint" />
          </mxGeometry>
        </mxCell>
        <mxCell id="8hckK23NObhMNq6vptdG-22" value="" style="ellipse;whiteSpace=wrap;html=1;aspect=fixed;fillColor=#808080;" parent="1" vertex="1">
          <mxGeometry x="727.5" y="-51" width="26" height="26" as="geometry" />
        </mxCell>
        <mxCell id="8hckK23NObhMNq6vptdG-25" style="edgeStyle=orthogonalEdgeStyle;rounded=0;orthogonalLoop=1;jettySize=auto;html=1;exitX=0.5;exitY=1;exitDx=0;exitDy=0;entryX=0.5;entryY=0;entryDx=0;entryDy=0;strokeColor=#FFFFFF;" parent="1" source="8hckK23NObhMNq6vptdG-24" edge="1">
          <mxGeometry relative="1" as="geometry">
            <mxPoint x="740.5" y="-188" as="targetPoint" />
          </mxGeometry>
        </mxCell>
        <mxCell id="8hckK23NObhMNq6vptdG-24" value="&lt;font style=&quot;&quot; color=&quot;#ffffff&quot;&gt;Sub-Claim C5:&lt;br&gt;Privilege escalation&amp;nbsp;is not possible by SSRF&lt;br&gt;&lt;/font&gt;" style="rounded=0;whiteSpace=wrap;html=1;fillColor=none;strokeColor=#FFFFFF;strokeWidth=2;" parent="1" vertex="1">
          <mxGeometry x="658" y="-295" width="141" height="72" as="geometry" />
        </mxCell>
        <mxCell id="8hckK23NObhMNq6vptdG-29" style="edgeStyle=orthogonalEdgeStyle;rounded=0;orthogonalLoop=1;jettySize=auto;html=1;exitX=0.5;exitY=1;exitDx=0;exitDy=0;entryX=0.5;entryY=0;entryDx=0;entryDy=0;strokeColor=#FFFFFF;" parent="1" source="8hckK23NObhMNq6vptdG-27" edge="1">
          <mxGeometry relative="1" as="geometry">
            <mxPoint x="877" y="-188" as="targetPoint" />
          </mxGeometry>
        </mxCell>
        <mxCell id="8hckK23NObhMNq6vptdG-27" value="&lt;font style=&quot;&quot; color=&quot;#ffffff&quot;&gt;Sub-Claim C6:&lt;br&gt;Privilege escalation&amp;nbsp;is not possible by SQL Injection&lt;br&gt;&lt;/font&gt;" style="rounded=0;whiteSpace=wrap;html=1;fillColor=none;strokeColor=#FFFFFF;strokeWidth=2;" parent="1" vertex="1">
          <mxGeometry x="806.5" y="-295" width="141" height="72" as="geometry" />
        </mxCell>
        <mxCell id="8hckK23NObhMNq6vptdG-30" value="" style="ellipse;whiteSpace=wrap;html=1;aspect=fixed;fillColor=#808080;" parent="1" vertex="1">
          <mxGeometry x="864" y="-51" width="26" height="26" as="geometry" />
        </mxCell>
        <mxCell id="8hckK23NObhMNq6vptdG-33" value="&lt;h1&gt;&lt;font color=&quot;#ffffff&quot;&gt;RBAC Claim Diagram&lt;/font&gt;&lt;/h1&gt;" style="text;html=1;strokeColor=none;fillColor=none;spacing=5;spacingTop=-20;whiteSpace=wrap;overflow=hidden;rounded=0;" parent="1" vertex="1">
          <mxGeometry x="-124" y="-706" width="190" height="120" as="geometry" />
        </mxCell>
        <mxCell id="ytKcrQhwxrK1HXbRfZfO-33" style="edgeStyle=orthogonalEdgeStyle;rounded=0;orthogonalLoop=1;jettySize=auto;html=1;exitX=0.5;exitY=1;exitDx=0;exitDy=0;entryX=0.5;entryY=0;entryDx=0;entryDy=0;strokeColor=#FFFFFF;" edge="1" parent="1" source="ytKcrQhwxrK1HXbRfZfO-1" target="ytKcrQhwxrK1HXbRfZfO-3">
          <mxGeometry relative="1" as="geometry" />
        </mxCell>
        <mxCell id="ytKcrQhwxrK1HXbRfZfO-1" value="&lt;font style=&quot;font-size: 12px;&quot; color=&quot;#ffffff&quot;&gt;&lt;font style=&quot;font-size: 12px;&quot;&gt;Evidence E1&lt;/font&gt;&lt;span style=&quot;&quot;&gt;:&lt;/span&gt;&lt;br&gt;Database Assurance Case&lt;br&gt;&lt;/font&gt;" style="ellipse;whiteSpace=wrap;html=1;aspect=fixed;fillColor=none;strokeColor=#FFFFFF;strokeWidth=2;" vertex="1" parent="1">
          <mxGeometry x="143" y="-191" width="98" height="98" as="geometry" />
        </mxCell>
        <mxCell id="ytKcrQhwxrK1HXbRfZfO-3" value="" style="ellipse;whiteSpace=wrap;html=1;aspect=fixed;fillColor=#808080;" vertex="1" parent="1">
          <mxGeometry x="179" y="-65" width="26" height="26" as="geometry" />
        </mxCell>
        <mxCell id="ytKcrQhwxrK1HXbRfZfO-7" value="" style="edgeStyle=orthogonalEdgeStyle;rounded=0;orthogonalLoop=1;jettySize=auto;html=1;" edge="1" parent="1">
          <mxGeometry relative="1" as="geometry">
            <mxPoint x="284.5" y="-192" as="sourcePoint" />
            <mxPoint x="284.5" y="-268" as="targetPoint" />
          </mxGeometry>
        </mxCell>
        <mxCell id="ytKcrQhwxrK1HXbRfZfO-17" style="edgeStyle=orthogonalEdgeStyle;rounded=0;orthogonalLoop=1;jettySize=auto;html=1;exitX=0.5;exitY=1;exitDx=0;exitDy=0;exitPerimeter=0;entryX=0.5;entryY=0;entryDx=0;entryDy=0;strokeColor=#FFFFFF;" edge="1" parent="1" source="ytKcrQhwxrK1HXbRfZfO-14" target="ytKcrQhwxrK1HXbRfZfO-16">
          <mxGeometry relative="1" as="geometry" />
        </mxCell>
        <mxCell id="ytKcrQhwxrK1HXbRfZfO-14" value="&lt;font style=&quot;background-color: rgb(102, 51, 0);&quot; color=&quot;#ffffff&quot;&gt;Rebuttal R4:&lt;br&gt;Unless Authentication Methods are not in place&lt;br&gt;&lt;/font&gt;" style="shape=note;whiteSpace=wrap;html=1;backgroundOutline=1;darkOpacity=0.05;fillColor=#663300;strokeColor=#FFFFFF;" vertex="1" parent="1">
          <mxGeometry x="-161" y="-68" width="156" height="80" as="geometry" />
        </mxCell>
        <mxCell id="ytKcrQhwxrK1HXbRfZfO-15" style="edgeStyle=orthogonalEdgeStyle;rounded=0;orthogonalLoop=1;jettySize=auto;html=1;exitX=0.5;exitY=1;exitDx=0;exitDy=0;entryX=0;entryY=0;entryDx=63;entryDy=0;entryPerimeter=0;curved=1;strokeColor=#FFFFFF;" edge="1" parent="1" source="XoP2dFKV41F0B6HGyTo1-10" target="ytKcrQhwxrK1HXbRfZfO-14">
          <mxGeometry relative="1" as="geometry">
            <Array as="points">
              <mxPoint x="183" y="-188" />
              <mxPoint x="-98" y="-188" />
            </Array>
          </mxGeometry>
        </mxCell>
        <mxCell id="ytKcrQhwxrK1HXbRfZfO-19" style="edgeStyle=orthogonalEdgeStyle;rounded=0;orthogonalLoop=1;jettySize=auto;html=1;exitX=0.5;exitY=1;exitDx=0;exitDy=0;entryX=0.5;entryY=0;entryDx=0;entryDy=0;strokeColor=#FFFFFF;" edge="1" parent="1" source="ytKcrQhwxrK1HXbRfZfO-16" target="ytKcrQhwxrK1HXbRfZfO-35">
          <mxGeometry relative="1" as="geometry">
            <mxPoint x="-83" y="164" as="targetPoint" />
          </mxGeometry>
        </mxCell>
        <mxCell id="ytKcrQhwxrK1HXbRfZfO-16" value="&lt;font style=&quot;&quot; color=&quot;#ffffff&quot;&gt;Sub-Claim C7:&lt;br&gt;&lt;/font&gt;&lt;font style=&quot;&quot; color=&quot;#ffffff&quot;&gt;ITFlow uses MFA to authenticate users&lt;br&gt;&lt;/font&gt;" style="rounded=0;whiteSpace=wrap;html=1;fillColor=none;strokeColor=#FFFFFF;strokeWidth=2;" vertex="1" parent="1">
          <mxGeometry x="-153.5" y="52" width="141" height="72" as="geometry" />
        </mxCell>
        <mxCell id="ytKcrQhwxrK1HXbRfZfO-34" style="edgeStyle=orthogonalEdgeStyle;rounded=0;orthogonalLoop=1;jettySize=auto;html=1;exitX=0.5;exitY=1;exitDx=0;exitDy=0;entryX=0.5;entryY=0;entryDx=0;entryDy=0;strokeColor=#FFFFFF;" edge="1" parent="1" target="ytKcrQhwxrK1HXbRfZfO-20">
          <mxGeometry relative="1" as="geometry">
            <mxPoint x="-83" y="270" as="sourcePoint" />
          </mxGeometry>
        </mxCell>
        <mxCell id="ytKcrQhwxrK1HXbRfZfO-20" value="" style="ellipse;whiteSpace=wrap;html=1;aspect=fixed;fillColor=#808080;" vertex="1" parent="1">
          <mxGeometry x="-96" y="289" width="26" height="26" as="geometry" />
        </mxCell>
        <mxCell id="ytKcrQhwxrK1HXbRfZfO-28" style="edgeStyle=orthogonalEdgeStyle;rounded=0;orthogonalLoop=1;jettySize=auto;html=1;exitX=0.5;exitY=1;exitDx=0;exitDy=0;exitPerimeter=0;entryX=0.5;entryY=0;entryDx=0;entryDy=0;strokeColor=#FFFFFF;" edge="1" parent="1" source="ytKcrQhwxrK1HXbRfZfO-22" target="ytKcrQhwxrK1HXbRfZfO-24">
          <mxGeometry relative="1" as="geometry" />
        </mxCell>
        <mxCell id="ytKcrQhwxrK1HXbRfZfO-22" value="&lt;font color=&quot;#ffffff&quot;&gt;&lt;span style=&quot;background-color: rgb(0, 127, 255);&quot;&gt;Undermine UM1:&lt;br&gt;&lt;/span&gt;Unless Admin accounts can be compromised&lt;br&gt;&lt;/font&gt;" style="shape=note;whiteSpace=wrap;html=1;backgroundOutline=1;darkOpacity=0.05;fillColor=#007FFF;strokeColor=#FFFFFF;" vertex="1" parent="1">
          <mxGeometry x="339" y="-68" width="156" height="80" as="geometry" />
        </mxCell>
        <mxCell id="ytKcrQhwxrK1HXbRfZfO-26" style="edgeStyle=orthogonalEdgeStyle;rounded=0;orthogonalLoop=1;jettySize=auto;html=1;exitX=0.5;exitY=1;exitDx=0;exitDy=0;entryX=0.5;entryY=0;entryDx=0;entryDy=0;strokeColor=#FFFFFF;" edge="1" parent="1" source="ytKcrQhwxrK1HXbRfZfO-24" target="ytKcrQhwxrK1HXbRfZfO-38">
          <mxGeometry relative="1" as="geometry">
            <mxPoint x="417" y="164" as="targetPoint" />
          </mxGeometry>
        </mxCell>
        <mxCell id="ytKcrQhwxrK1HXbRfZfO-27" value="" style="edgeStyle=orthogonalEdgeStyle;rounded=0;orthogonalLoop=1;jettySize=auto;html=1;strokeColor=#FFFFFF;endArrow=none;endFill=0;" edge="1" parent="1" source="ytKcrQhwxrK1HXbRfZfO-24" target="ytKcrQhwxrK1HXbRfZfO-22">
          <mxGeometry relative="1" as="geometry" />
        </mxCell>
        <mxCell id="ytKcrQhwxrK1HXbRfZfO-24" value="&lt;font style=&quot;&quot; color=&quot;#ffffff&quot;&gt;Sub-Claim C8:&lt;br&gt;&lt;/font&gt;&lt;font style=&quot;&quot; color=&quot;#ffffff&quot;&gt;Input is sanitized everytime a request is sent for login&lt;br&gt;&lt;/font&gt;" style="rounded=0;whiteSpace=wrap;html=1;fillColor=none;strokeColor=#FFFFFF;strokeWidth=2;" vertex="1" parent="1">
          <mxGeometry x="346.5" y="52" width="141" height="72" as="geometry" />
        </mxCell>
        <mxCell id="ytKcrQhwxrK1HXbRfZfO-29" value="" style="ellipse;whiteSpace=wrap;html=1;aspect=fixed;fillColor=#808080;" vertex="1" parent="1">
          <mxGeometry x="404" y="289" width="26" height="26" as="geometry" />
        </mxCell>
        <mxCell id="ytKcrQhwxrK1HXbRfZfO-40" style="edgeStyle=orthogonalEdgeStyle;rounded=0;orthogonalLoop=1;jettySize=auto;html=1;exitX=0.5;exitY=1;exitDx=0;exitDy=0;entryX=0.5;entryY=0;entryDx=0;entryDy=0;strokeColor=#FFFFFF;" edge="1" parent="1" source="ytKcrQhwxrK1HXbRfZfO-35" target="ytKcrQhwxrK1HXbRfZfO-20">
          <mxGeometry relative="1" as="geometry" />
        </mxCell>
        <mxCell id="ytKcrQhwxrK1HXbRfZfO-35" value="&lt;font style=&quot;font-size: 12px;&quot; color=&quot;#ffffff&quot;&gt;&lt;font style=&quot;font-size: 12px;&quot;&gt;Evidence E5&lt;/font&gt;&lt;span style=&quot;&quot;&gt;:&lt;/span&gt;&lt;br&gt;MFA Assurance Case&lt;br&gt;&lt;/font&gt;" style="ellipse;whiteSpace=wrap;html=1;aspect=fixed;fillColor=none;strokeColor=#FFFFFF;strokeWidth=2;" vertex="1" parent="1">
          <mxGeometry x="-132" y="161" width="98" height="98" as="geometry" />
        </mxCell>
        <mxCell id="ytKcrQhwxrK1HXbRfZfO-36" value="&lt;font style=&quot;font-size: 12px;&quot; color=&quot;#ffffff&quot;&gt;&lt;font style=&quot;font-size: 12px;&quot;&gt;Evidence E2&lt;/font&gt;&lt;span style=&quot;&quot;&gt;:&lt;/span&gt;&lt;br&gt;Roles set by Admins&lt;br&gt;&lt;/font&gt;" style="ellipse;whiteSpace=wrap;html=1;aspect=fixed;fillColor=none;strokeColor=#FFFFFF;strokeWidth=2;" vertex="1" parent="1">
          <mxGeometry x="368" y="-191" width="98" height="98" as="geometry" />
        </mxCell>
        <mxCell id="ytKcrQhwxrK1HXbRfZfO-41" value="" style="edgeStyle=orthogonalEdgeStyle;rounded=0;orthogonalLoop=1;jettySize=auto;html=1;exitX=0.5;exitY=0;exitDx=0;exitDy=0;strokeColor=#FFFFFF;endArrow=none;endFill=0;" edge="1" parent="1" source="ytKcrQhwxrK1HXbRfZfO-37" target="8hckK23NObhMNq6vptdG-27">
          <mxGeometry relative="1" as="geometry" />
        </mxCell>
        <mxCell id="ytKcrQhwxrK1HXbRfZfO-42" value="" style="edgeStyle=orthogonalEdgeStyle;rounded=0;orthogonalLoop=1;jettySize=auto;html=1;exitX=0.5;exitY=1;exitDx=0;exitDy=0;strokeColor=#FFFFFF;" edge="1" parent="1" source="ytKcrQhwxrK1HXbRfZfO-37" target="8hckK23NObhMNq6vptdG-30">
          <mxGeometry relative="1" as="geometry" />
        </mxCell>
        <mxCell id="ytKcrQhwxrK1HXbRfZfO-37" value="&lt;font style=&quot;font-size: 12px;&quot; color=&quot;#ffffff&quot;&gt;&lt;font style=&quot;font-size: 12px;&quot;&gt;Evidence E4&lt;/font&gt;&lt;span style=&quot;&quot;&gt;:&lt;/span&gt;&lt;br&gt;Resolved by devs&lt;br&gt;&lt;/font&gt;" style="ellipse;whiteSpace=wrap;html=1;aspect=fixed;fillColor=none;strokeColor=#FFFFFF;strokeWidth=2;" vertex="1" parent="1">
          <mxGeometry x="828" y="-186" width="98" height="98" as="geometry" />
        </mxCell>
        <mxCell id="ytKcrQhwxrK1HXbRfZfO-43" style="edgeStyle=orthogonalEdgeStyle;rounded=0;orthogonalLoop=1;jettySize=auto;html=1;exitX=0.5;exitY=1;exitDx=0;exitDy=0;entryX=0.5;entryY=0;entryDx=0;entryDy=0;strokeColor=#FFFFFF;" edge="1" parent="1" source="ytKcrQhwxrK1HXbRfZfO-38" target="ytKcrQhwxrK1HXbRfZfO-29">
          <mxGeometry relative="1" as="geometry" />
        </mxCell>
        <mxCell id="ytKcrQhwxrK1HXbRfZfO-38" value="&lt;font style=&quot;font-size: 12px;&quot; color=&quot;#ffffff&quot;&gt;&lt;font style=&quot;font-size: 12px;&quot;&gt;Evidence E6&lt;/font&gt;&lt;span style=&quot;&quot;&gt;:&lt;/span&gt;&lt;br&gt;ITFlow Codebase&lt;br&gt;&lt;/font&gt;" style="ellipse;whiteSpace=wrap;html=1;aspect=fixed;fillColor=none;strokeColor=#FFFFFF;strokeWidth=2;" vertex="1" parent="1">
          <mxGeometry x="368" y="164" width="98" height="98" as="geometry" />
        </mxCell>
        <mxCell id="ytKcrQhwxrK1HXbRfZfO-39" value="&lt;font style=&quot;font-size: 12px;&quot; color=&quot;#ffffff&quot;&gt;&lt;font style=&quot;font-size: 12px;&quot;&gt;Evidence E3&lt;/font&gt;&lt;span style=&quot;&quot;&gt;:&lt;/span&gt;&lt;br&gt;Access Matrix&lt;br&gt;&lt;/font&gt;" style="ellipse;whiteSpace=wrap;html=1;aspect=fixed;fillColor=none;strokeColor=#FFFFFF;strokeWidth=2;" vertex="1" parent="1">
          <mxGeometry x="691.5" y="-188" width="98" height="98" as="geometry" />
        </mxCell>
        <mxCell id="ytKcrQhwxrK1HXbRfZfO-45" style="edgeStyle=orthogonalEdgeStyle;rounded=0;orthogonalLoop=1;jettySize=auto;html=1;exitX=0.5;exitY=1;exitDx=0;exitDy=0;entryX=0.5;entryY=0;entryDx=0;entryDy=0;entryPerimeter=0;strokeColor=#FFFFFF;" edge="1" parent="1" source="ytKcrQhwxrK1HXbRfZfO-36" target="ytKcrQhwxrK1HXbRfZfO-22">
          <mxGeometry relative="1" as="geometry" />
        </mxCell>
      </root>
    </mxGraphModel>
  </diagram>
</mxfile>
